<?xml version="1.0" encoding="UTF-8"?>
<!--Generator: Apple Native CoreSVG 360-->
<!DOCTYPE svg
PUBLIC "-//W3C//DTD SVG 1.1//EN"
       "http://www.w3.org/Graphics/SVG/1.1/DTD/svg11.dtd">
<svg version="1.1" xmlns="http://www.w3.org/2000/svg" xmlns:xlink="http://www.w3.org/1999/xlink" viewBox="0 0 1180.18 1236.82">
 <g>
  <rect height="1236.82" opacity="0" width="1180.18" x="0" y="0"/>
  <path d="M898.235 139.648L281.941 139.648C283.945 99.9647 308.989 77.1484 350.586 77.1484L829.59 77.1484C871.187 77.1484 896.231 99.9647 898.235 139.648Z" fill="white" fill-opacity="0.85"/>
  <path d="M998.116 279.125C982.412 276.628 965.755 275.391 948.242 275.391L231.934 275.391C214.425 275.391 197.772 276.628 182.073 279.123C187.389 232.213 219.132 206.055 270.996 206.055L909.668 206.055C961.533 206.055 992.873 232.214 998.116 279.125Z" fill="white" fill-opacity="0.85"/>
  <path d="M165.039 1156.74L1015.62 1156.74C1069.82 1156.74 1104 1122.56 1104 1069.82L1104 441.406C1104 388.672 1069.82 354.004 1015.62 354.004L165.039 354.004C110.352 354.004 76.1719 388.672 76.1719 441.406L76.1719 1069.82C76.1719 1122.56 110.352 1156.74 165.039 1156.74ZM163.574 516.602C150.391 516.602 142.09 507.812 142.09 496.582L142.09 447.266C142.09 433.594 150.879 424.316 165.039 424.316L220.215 424.316C232.422 424.316 240.234 433.105 240.234 445.801L240.234 496.582C240.234 507.812 232.422 516.602 220.215 516.602ZM163.574 660.645C150.391 660.645 142.09 651.367 142.09 641.113L142.09 590.332C142.09 578.613 150.391 569.336 163.574 569.336L220.215 569.336C232.422 569.336 240.234 578.613 240.234 590.332L240.234 641.113C240.234 651.367 232.422 660.645 220.215 660.645ZM163.574 801.758C150.391 801.758 142.09 791.992 142.09 780.273L142.09 731.934C142.09 718.262 150.391 709.473 163.574 709.473L220.215 709.473C232.422 709.473 240.234 718.262 240.234 731.934L240.234 780.273C240.234 791.992 232.422 801.758 220.215 801.758ZM163.574 941.895C150.391 941.895 142.09 932.617 142.09 921.875L142.09 872.07C142.09 859.375 150.391 851.074 163.574 851.074L220.215 851.074C232.422 851.074 240.234 859.375 240.234 872.07L240.234 921.875C240.234 932.617 232.422 941.895 220.215 941.895ZM165.039 1086.43C150.879 1086.43 142.09 1077.15 142.09 1063.96L142.09 1015.14C142.09 1002.44 150.391 994.141 163.574 994.141L220.215 994.141C232.422 994.141 240.234 1002.44 240.234 1015.14L240.234 1065.92C240.234 1077.64 232.422 1086.43 220.215 1086.43ZM322.754 720.215C310.547 720.215 302.734 713.379 302.734 700.195L302.734 444.336C302.734 431.641 310.547 424.316 322.754 424.316L857.91 424.316C869.629 424.316 877.441 431.641 877.441 444.336L877.441 700.195C877.441 713.379 869.629 720.215 857.91 720.215ZM322.754 1086.43C310.547 1086.43 302.734 1078.61 302.734 1066.41L302.734 812.012C302.734 799.316 310.547 791.992 322.754 791.992L857.91 791.992C869.629 791.992 877.441 799.316 877.441 812.012L877.441 1066.41C877.441 1078.61 869.629 1086.43 857.91 1086.43ZM960.449 516.602C948.242 516.602 939.941 507.812 939.941 496.582L939.941 445.801C939.941 433.105 948.242 424.316 960.449 424.316L1015.14 424.316C1029.3 424.316 1038.09 433.594 1038.09 447.266L1038.09 496.582C1038.09 507.812 1029.79 516.602 1016.6 516.602ZM960.449 660.645C948.242 660.645 939.941 651.367 939.941 641.113L939.941 590.332C939.941 578.613 948.242 569.336 960.449 569.336L1016.6 569.336C1029.79 569.336 1038.09 578.613 1038.09 590.332L1038.09 641.113C1038.09 651.367 1029.79 660.645 1016.6 660.645ZM960.449 801.758C948.242 801.758 939.941 791.992 939.941 780.273L939.941 731.934C939.941 718.262 948.242 709.473 960.449 709.473L1016.6 709.473C1029.79 709.473 1038.09 718.262 1038.09 731.934L1038.09 780.273C1038.09 791.992 1029.79 801.758 1016.6 801.758ZM960.449 941.895C948.242 941.895 939.941 932.617 939.941 921.875L939.941 872.07C939.941 859.375 948.242 851.074 960.449 851.074L1016.6 851.074C1029.79 851.074 1038.09 859.375 1038.09 872.07L1038.09 921.875C1038.09 932.617 1029.79 941.895 1016.6 941.895ZM960.449 1086.43C948.242 1086.43 939.941 1077.64 939.941 1065.92L939.941 1015.14C939.941 1002.44 948.242 994.141 960.449 994.141L1016.6 994.141C1029.79 994.141 1038.09 1002.44 1038.09 1015.14L1038.09 1063.96C1038.09 1077.15 1029.3 1086.43 1015.14 1086.43Z" fill="white" fill-opacity="0.85"/>
 </g>
</svg>
